# Blender v2.77 (sub 0) OBJ File: 'farmer.blend'
# www.blender.org
mtllib farmer.mtl
o Cube
v 0.756418 2.124692 -0.559611
v 0.756418 2.124692 0.574056
v -0.756418 2.124692 0.574056
v -0.756418 2.124692 -0.559612
v 0.756418 4.124692 -0.559611
v 0.756417 4.124692 0.574057
v -0.756418 4.124692 0.574056
v -0.756418 4.124692 -0.559611
v 0.756418 2.124692 -0.333333
v 0.756418 2.124692 0.333333
v 0.120062 2.124692 -0.559611
v -0.120062 2.124692 -0.559612
v 0.756418 2.791358 -0.559611
v 0.756418 3.458025 -0.559611
v 0.120062 2.124692 0.574056
v -0.120062 2.124692 0.574056
v 0.756418 2.791358 0.574056
v 0.756417 3.458025 0.574057
v -0.756418 2.124692 0.333333
v -0.756418 2.124692 -0.333334
v -0.756418 2.791358 0.574056
v -0.756418 3.458025 0.574056
v -0.756418 2.791358 -0.559612
v -0.756418 3.458025 -0.559611
v 0.756418 4.124692 -0.333333
v 0.756418 4.124692 0.333334
v 0.252139 4.124692 -0.559611
v -0.252139 4.124692 -0.559611
v 0.252139 4.124692 0.574056
v -0.252140 4.124692 0.574056
v -0.756418 4.124692 0.333333
v -0.756418 4.124692 -0.333333
v -0.756418 2.791358 0.333333
v -0.756418 2.791358 -0.333334
v -0.756418 3.458025 0.333333
v -0.756418 3.458025 -0.333334
v 0.252139 2.791358 0.574056
v -0.252139 2.791358 0.574056
v 0.252139 3.458025 0.574056
v -0.252140 3.458025 0.574056
v 0.756418 2.791358 -0.333333
v 0.756418 2.791358 0.333334
v 0.756418 3.458025 -0.333333
v 0.756418 3.458025 0.333334
v 0.162262 4.124692 -0.333333
v 0.162262 4.124692 0.333334
v -0.162262 4.124692 -0.333333
v -0.162262 4.124692 0.333333
v 0.120062 2.124692 -0.333333
v -0.120062 2.124692 -0.333334
v 0.120062 2.124692 0.333333
v -0.120062 2.124692 0.333333
v 0.321676 4.497298 -0.378488
v 0.321676 4.497298 0.378488
v -0.321676 4.497298 -0.378488
v -0.321676 4.497298 0.378488
v 0.756418 4.124692 -0.333333
v 0.756418 4.124692 0.333334
v -0.756418 4.124692 0.333333
v -0.756418 4.124692 -0.333333
v -0.756418 3.458025 0.333333
v -0.756418 3.458025 -0.333334
v 0.756418 3.458025 -0.333333
v 0.756418 3.458025 0.333334
v 0.754723 4.124692 -0.333333
v 0.754723 4.124692 0.333334
v -0.754723 4.124692 0.333333
v -0.754723 4.124692 -0.333333
v -0.754723 3.458025 0.333333
v -0.754723 3.458025 -0.333334
v 0.754723 3.458025 -0.333333
v 0.754723 3.458025 0.333334
v -1.265422 4.124691 0.333333
v -1.265422 4.124691 -0.333334
v -1.265422 3.458025 0.333333
v -1.265422 3.458025 -0.333334
v 1.265422 4.124691 -0.333332
v 1.265422 4.124691 0.333334
v 1.265422 3.458025 -0.333333
v 1.265422 3.458025 0.333334
v 0.754723 4.124692 0.000001
v -0.754723 4.124692 -0.000000
v -0.754723 3.458025 -0.000000
v -0.754723 3.791358 0.333333
v -0.754723 3.791358 -0.333333
v 0.754723 3.458025 0.000000
v 0.754723 3.791358 -0.333333
v 0.754723 3.791358 0.333334
v -1.265422 4.124691 -0.000000
v -1.265422 3.458025 -0.000000
v -1.265422 3.791358 0.333333
v -1.265422 3.791358 -0.333334
v -0.878423 3.458025 -0.333334
v -0.878423 4.124691 -0.333334
v -0.878423 3.458025 0.333333
v -0.878423 4.124691 0.333333
v 1.265422 4.124691 0.000001
v 1.265422 3.458025 0.000001
v 1.265422 3.791358 -0.333332
v 1.265422 3.791358 0.333334
v 0.878423 4.124692 -0.333333
v 0.878423 3.458025 -0.333333
v 0.878423 4.124692 0.333334
v 0.878423 3.458025 0.333334
v 0.878423 3.458025 0.000001
v 0.878423 3.791358 0.333334
v 0.878423 4.124692 0.000001
v 1.265422 3.791358 0.000001
v -0.878423 4.124691 -0.000000
v -0.878423 3.791358 0.333333
v -0.878423 3.458025 -0.000000
v -1.265422 3.791358 -0.000000
v 0.878423 3.791358 -0.333333
v -0.878423 3.791358 -0.333334
v 0.287138 5.666863 -0.378488
v 0.287138 5.666863 0.378488
v -0.287138 5.666863 -0.378488
v -0.287138 5.666863 0.378488
v -0.409958 5.076789 -0.378488
v 0.409958 5.076789 -0.378488
v 0.409958 5.076789 0.378488
v -0.409958 5.076789 0.378488
v -1.265422 3.458025 -0.000000
v -1.265422 3.458025 -0.333334
v -0.878423 3.458025 -0.333334
v -0.878423 3.458025 0.333333
v -1.265422 3.458025 0.333333
v 1.265422 3.458025 0.000001
v 1.265422 3.458025 0.333334
v 0.878423 3.458025 0.333334
v 1.265422 3.458025 -0.333333
v 0.878423 3.458025 -0.333333
v 0.878423 3.458025 0.000001
v -0.878423 3.458025 -0.000000
v -1.265422 3.458025 -0.000000
v -1.265422 3.458025 -0.333334
v -0.878423 3.458025 -0.333334
v -0.878423 3.458025 0.333333
v -1.265422 3.458025 0.333333
v 1.265422 3.458025 0.000001
v 1.265422 3.458025 0.333334
v 0.878423 3.458025 0.333334
v 1.265422 3.458025 -0.333333
v 0.878423 3.458025 -0.333333
v 0.878423 3.458025 0.000001
v -0.878423 3.458025 -0.000000
v -1.265422 3.458025 -0.000000
v -1.265422 3.458025 -0.333334
v -0.878423 3.458025 -0.333334
v -0.878423 3.458025 0.333333
v -1.265422 3.458025 0.333333
v 1.265422 3.458025 0.000001
v 1.265422 3.458025 0.333334
v 0.878423 3.458025 0.333334
v 1.265422 3.458025 -0.333333
v 0.878423 3.458025 -0.333333
v 0.878423 3.458025 0.000001
v -0.878423 3.458025 -0.000000
v -1.265422 1.574210 -0.000000
v -1.265422 1.574210 -0.333334
v -0.878423 1.574210 -0.333334
v -0.878423 1.574210 0.333333
v -1.265422 1.574210 0.333333
v 1.265422 1.574210 0.000001
v 1.265422 1.574210 0.333334
v 0.878423 1.574210 0.333334
v 1.265422 1.574210 -0.333333
v 0.878423 1.574210 -0.333333
v 0.878423 1.574210 0.000001
v -0.878423 1.574210 -0.000000
v 0.580107 -0.005543 -0.333333
v 0.580107 -0.005543 0.333333
v -0.580107 -0.005543 0.333333
v -0.580107 -0.005543 -0.333334
v -0.120062 -0.005543 -0.333334
v 0.120062 -0.005543 -0.333333
v -0.120062 -0.005543 0.333333
v 0.120062 -0.005543 0.333333
v -0.580107 0.305627 0.333333
v -0.120062 0.305627 0.333333
v -0.120062 0.305627 -0.333334
v -0.580107 0.305627 -0.333334
v 0.580107 0.313993 -0.333333
v 0.120062 0.313993 -0.333333
v 0.120062 0.313993 0.333333
v 0.580107 0.313993 0.333333
v -0.120062 -0.005543 0.715953
v -0.756418 -0.005543 0.715953
v 0.756418 -0.005543 0.715953
v 0.120062 -0.005543 0.715953
v -0.756418 0.305627 0.715953
v 0.756418 0.313993 0.715953
v -0.120062 0.305627 0.715953
v 0.120062 0.313993 0.715953
vn 0.0000 -1.0000 -0.0000
vn 0.0000 1.0000 -0.0000
vn 1.0000 0.0000 0.0000
vn -0.0000 0.0000 1.0000
vn -1.0000 -0.0000 -0.0000
vn 0.0000 -0.1203 -0.9927
vn 0.0000 0.0000 -1.0000
vn -0.9082 0.0000 -0.4185
vn 0.9194 -0.3933 0.0000
vn -0.0000 -0.1203 0.9927
vn -0.9194 -0.3933 -0.0000
vn 0.9790 0.2038 0.0000
vn -0.9790 0.2038 -0.0000
vn -0.9886 -0.1506 -0.0000
vn 0.9886 -0.1506 0.0000
vn -0.9953 -0.0965 -0.0000
vn 0.9953 -0.0969 0.0000
vn 0.9082 0.0000 -0.4185
usemtl Material
s off
f 52//1 16//1 3//1 19//1
f 48//2 31//2 7//2 30//2
f 44//3 26//3 6//3 18//3
f 40//4 30//4 7//4 22//4
f 36//5 32//5 8//5 24//5
f 20//5 34//5 23//5 4//5
f 34//5 36//5 24//5 23//5
f 3//5 21//5 33//5 19//5
f 19//5 33//5 34//5 20//5
f 21//5 22//5 35//5 33//5
f 33//5 35//5 36//5 34//5
f 22//5 7//5 31//5 35//5
f 32//4 36//4 62//4 60//4
f 16//4 38//4 21//4 3//4
f 38//4 40//4 22//4 21//4
f 2//4 17//4 37//4 15//4
f 15//4 37//4 38//4 16//4
f 17//4 18//4 39//4 37//4
f 37//4 39//4 40//4 38//4
f 18//4 6//4 29//4 39//4
f 39//4 29//4 30//4 40//4
f 10//3 42//3 17//3 2//3
f 42//3 44//3 18//3 17//3
f 1//3 13//3 41//3 9//3
f 9//3 41//3 42//3 10//3
f 13//3 14//3 43//3 41//3
f 41//3 43//3 44//3 42//3
f 14//3 5//3 25//3 43//3
f 26//4 44//4 64//4 58//4
f 26//2 46//2 29//2 6//2
f 46//2 48//2 30//2 29//2
f 5//2 27//2 45//2 25//2
f 25//2 45//2 46//2 26//2
f 27//2 28//2 47//2 45//2
f 45//6 47//6 55//6 53//6
f 28//2 8//2 32//2 47//2
f 47//2 32//2 31//2 48//2
f 12//1 50//1 20//1 4//1
f 184//7 183//7 171//7 176//7
f 1//1 9//1 49//1 11//1
f 11//1 49//1 50//1 12//1
f 179//8 173//8 188//8 191//8
f 49//1 51//1 52//1 50//1
f 10//1 2//1 15//1 51//1
f 51//1 15//1 16//1 52//1
f 120//7 119//7 117//7 115//7
f 46//9 45//9 53//9 54//9
f 48//10 46//10 54//10 56//10
f 47//11 48//11 56//11 55//11
f 62//2 61//2 69//2 83//2 70//2
f 60//4 62//4 70//4 85//4 68//4
f 31//4 32//4 60//4 59//4
f 44//4 43//4 63//4 64//4
f 36//4 35//4 61//4 62//4
f 25//4 26//4 58//4 57//4
f 43//4 25//4 57//4 63//4
f 35//4 31//4 59//4 61//4
f 114//7 93//7 76//7 92//7
f 113//7 101//7 77//7 99//7
f 57//1 58//1 66//1 81//1 65//1
f 58//7 64//7 72//7 88//7 66//7
f 64//2 63//2 71//2 86//2 72//2
f 61//7 59//7 67//7 84//7 69//7
f 59//1 60//1 68//1 82//1 67//1
f 63//4 57//4 65//4 87//4 71//4
f 112//5 89//5 74//5 92//5
f 80//4 104//4 130//4 129//4
f 110//4 96//4 73//4 91//4
f 109//2 94//2 74//2 89//2
f 108//3 97//3 78//3 100//3
f 107//2 103//2 78//2 97//2
f 106//4 104//4 80//4 100//4
f 93//4 111//4 134//4 125//4
f 12//7 4//7 23//7 24//7 8//7 28//7 27//7 5//7 14//7 13//7 1//7 11//7
f 104//4 105//4 133//4 130//4
f 72//1 86//1 105//1 104//1
f 86//1 71//1 102//1 105//1
f 103//4 106//4 100//4 78//4
f 66//4 88//4 106//4 103//4
f 88//4 72//4 104//4 106//4
f 101//2 107//2 97//2 77//2
f 65//2 81//2 107//2 101//2
f 81//2 66//2 103//2 107//2
f 98//3 108//3 100//3 80//3
f 79//3 99//3 108//3 98//3
f 99//3 77//3 97//3 108//3
f 96//2 109//2 89//2 73//2
f 67//2 82//2 109//2 96//2
f 82//2 68//2 94//2 109//2
f 95//4 110//4 91//4 75//4
f 69//4 84//4 110//4 95//4
f 84//4 67//4 96//4 110//4
f 75//4 90//4 123//4 127//4
f 70//1 83//1 111//1 93//1
f 83//1 69//1 95//1 111//1
f 90//5 112//5 92//5 76//5
f 75//5 91//5 112//5 90//5
f 91//5 73//5 89//5 112//5
f 102//7 113//7 99//7 79//7
f 71//7 87//7 113//7 102//7
f 87//7 65//7 101//7 113//7
f 94//7 114//7 92//7 74//7
f 68//7 85//7 114//7 94//7
f 85//7 70//7 93//7 114//7
f 115//2 117//2 118//2 116//2
f 121//12 120//12 115//12 116//12
f 122//4 121//4 116//4 118//4
f 119//13 122//13 118//13 117//13
f 55//14 56//14 122//14 119//14
f 56//4 54//4 121//4 122//4
f 54//15 53//15 120//15 121//15
f 53//7 55//7 119//7 120//7
f 125//4 134//4 146//4 137//4
f 127//4 123//4 135//4 139//4
f 124//4 125//4 137//4 136//4
f 129//4 130//4 142//4 141//4
f 105//4 102//4 132//4 133//4
f 98//4 80//4 129//4 128//4
f 111//4 95//4 126//4 134//4
f 79//4 98//4 128//4 131//4
f 95//4 75//4 127//4 126//4
f 102//4 79//4 131//4 132//4
f 76//4 93//4 125//4 124//4
f 90//4 76//4 124//4 123//4
f 139//4 135//4 147//4 151//4
f 136//4 137//4 149//4 148//4
f 141//4 142//4 154//4 153//4
f 144//4 143//4 155//4 156//4
f 126//4 127//4 139//4 138//4
f 130//4 133//4 145//4 142//4
f 131//4 128//4 140//4 143//4
f 134//4 126//4 138//4 146//4
f 128//4 129//4 141//4 140//4
f 133//4 132//4 144//4 145//4
f 123//4 124//4 136//4 135//4
f 132//4 131//4 143//4 144//4
f 148//7 149//7 161//7 160//7
f 153//4 154//4 166//4 165//4
f 156//7 155//7 167//7 168//7
f 147//5 148//5 160//5 159//5
f 137//4 146//4 158//4 149//4
f 138//4 139//4 151//4 150//4
f 142//4 145//4 157//4 154//4
f 143//4 140//4 152//4 155//4
f 146//4 138//4 150//4 158//4
f 140//4 141//4 153//4 152//4
f 145//4 144//4 156//4 157//4
f 135//4 136//4 148//4 147//4
f 170//1 162//1 163//1 159//1
f 169//1 168//1 167//1 164//1
f 166//1 169//1 164//1 165//1
f 161//1 170//1 159//1 160//1
f 151//5 147//5 159//5 163//5
f 149//3 158//3 170//3 161//3
f 150//4 151//4 163//4 162//4
f 154//5 157//5 169//5 166//5
f 155//3 152//3 164//3 167//3
f 158//3 150//3 162//3 170//3
f 152//3 153//3 165//3 164//3
f 157//5 156//5 168//5 169//5
f 175//1 177//1 173//1 174//1
f 171//1 172//1 178//1 176//1
f 185//5 184//5 176//5 178//5
f 183//3 186//3 172//3 171//3
f 180//2 179//2 191//2 193//2
f 182//7 181//7 175//7 174//7
f 181//3 180//3 177//3 175//3
f 179//5 182//5 174//5 173//5
f 19//16 20//16 182//16 179//16
f 50//3 52//3 180//3 181//3
f 20//7 50//7 181//7 182//7
f 52//4 19//4 179//4 180//4
f 10//4 51//4 185//4 186//4
f 9//17 10//17 186//17 183//17
f 51//5 49//5 184//5 185//5
f 49//7 9//7 183//7 184//7
f 193//4 191//4 188//4 187//4
f 192//4 194//4 190//4 189//4
f 186//2 185//2 194//2 192//2
f 177//3 180//3 193//3 187//3
f 185//5 178//5 190//5 194//5
f 173//1 177//1 187//1 188//1
f 172//18 186//18 192//18 189//18
f 178//1 172//1 189//1 190//1
